<?xml version="1.0" encoding="utf-8"?><svg viewBox="0 0 81 18" xmlns="http://www.w3.org/2000/svg" xmlns:xlink="http://www.w3.org/1999/xlink"><style>:root>svg{display:none}:root>svg:target{display:block}</style><svg fill="none" viewBox="0 0 16 16" id="Frame2333" xmlns="http://www.w3.org/2000/svg"><rect x=".75" y=".75" width="14.5" height="14.5" rx="7.25" stroke="#D0BC7A" stroke-width="1.5"/><path d="m7.245 11 3-3-3-3" stroke="#D0BC7A" stroke-width="1.5" stroke-linecap="round" stroke-linejoin="round"/></svg><svg fill="none" viewBox="0 0 16 16" id="Frame_2333" xmlns="http://www.w3.org/2000/svg"><rect x=".75" y=".75" width="14.5" height="14.5" rx="7.25" stroke="#21242E" stroke-width="1.5"/><path d="m7.245 11 3-3-3-3" stroke="#21242E" stroke-width="1.5" stroke-linecap="round" stroke-linejoin="round"/></svg><svg fill="none" viewBox="0 0 12 14" id="Union" xmlns="http://www.w3.org/2000/svg"><path fill-rule="evenodd" clip-rule="evenodd" d="M3.25 4.4c0-1.475 1.22-2.692 2.75-2.692s2.75 1.217 2.75 2.693c0 1.475-1.22 2.692-2.75 2.692S3.25 5.876 3.25 4.401ZM6 .209c-2.335 0-4.25 1.866-4.25 4.193 0 2.327 1.915 4.192 4.25 4.192s4.25-1.865 4.25-4.192S8.334.208 6 .208ZM2.375 13.666a2.692 2.692 0 0 1 2.692-2.693h1.865a2.692 2.692 0 0 1 2.692 2.693h1.5a4.192 4.192 0 0 0-4.192-4.193H5.067a4.192 4.192 0 0 0-4.192 4.193h1.5Z" fill="#D0BC7A"/></svg><svg fill="none" viewBox="0 0 81 14" id="Union1" xmlns="http://www.w3.org/2000/svg"><path fill-rule="evenodd" clip-rule="evenodd" d="M70.337 0h2.806c4.104 0 7.12 2.999 7.12 7 0 4-3.02 6.998-7.12 6.998h-2.806c-4.108 0-7.135-3-7.135-6.998s3.027-7 7.135-7Zm0 11.866h2.806c2.793 0 4.864-2.082 4.864-4.871 0-2.79-2.076-4.871-4.864-4.871h-2.806c-2.797 0-4.881 2.1-4.881 4.87 0 2.772 2.089 4.872 4.88 4.872Zm-56.302-3.1c-.605 1.915-2.206 3.077-4.273 3.077h-2.81c-2.707 0-4.694-2.024-4.694-4.838s1.987-4.849 4.694-4.849h2.81c2.002 0 3.58 1.085 4.23 2.884h2.244C15.526 2.002 12.963.015 9.762.015h-2.81C2.952.015 0 2.97 0 7.005s2.951 6.981 6.952 6.981h2.81c3.254 0 5.82-2.042 6.521-5.216l-2.248-.004Zm6.808 2.89V7.878h7.94v-2.03h-7.94V2.324h8.441V.254H18.622v13.491h10.874v-2.09h-8.653ZM32.17.254h7.58c3.977 0 6.854 2.829 6.854 6.742s-2.882 6.75-6.853 6.75h-7.58V.253Zm2.221 11.426h5.293c2.732 0 4.652-1.958 4.652-4.684 0-2.727-1.92-4.675-4.652-4.675h-5.293v9.359Zm24.2-3.24a4.09 4.09 0 0 0 2.75-3.918c0-2.487-1.935-4.268-4.54-4.268h-8.077v13.491h2.221V8.752h5.37l2.904 4.993h2.492l-3.12-5.304Zm-1.92-1.758h-5.726V2.324h5.726c1.464 0 2.411.927 2.411 2.18 0 1.251-.94 2.178-2.411 2.178Z" fill="#D0BC7A"/></svg><svg fill="none" viewBox="0 0 16 15" id="Vector19" xmlns="http://www.w3.org/2000/svg"><path d="M13.92 2.06a3.69 3.69 0 0 0-1.195-.784 3.74 3.74 0 0 0-4.015.785L8 2.759l-.71-.698A3.718 3.718 0 0 0 4.685 1c-.978 0-1.915.38-2.606 1.06A3.59 3.59 0 0 0 1 4.62c0 .96.388 1.882 1.08 2.56l.71.698L8 13l5.21-5.12.71-.698c.343-.337.614-.736.8-1.175a3.565 3.565 0 0 0 0-2.771 3.617 3.617 0 0 0-.8-1.175Z" stroke="#D0BC7A" stroke-width="1.5"/></svg><svg fill="none" viewBox="0 0 14 14" id="Vector4" xmlns="http://www.w3.org/2000/svg"><path d="M3.664 1H1.158s-.355 2.743 0 4.44c.441 2.11.944 3.412 2.467 4.935 1.523 1.523 2.826 2.026 4.934 2.467 1.698.355 4.441 0 4.441 0v-2.506a2 2 0 0 0-1.367-1.897l-1.124-.374a.68.68 0 0 0-.763.242 1.702 1.702 0 0 1-2.643.122L5.665 6.81a1.83 1.83 0 0 1 .096-2.53.732.732 0 0 0 .185-.758l-.385-1.155A2 2 0 0 0 3.664 1Z" stroke="#D0BC7A" stroke-width="1.5"/></svg><svg fill="none" viewBox="0 0 22 18" id="favorites" xmlns="http://www.w3.org/2000/svg"><path d="M15.84 0c-1.747 0-3.278.779-4.429 2.253-.153.196-.29.393-.411.583a7.445 7.445 0 0 0-.411-.583C9.439.779 7.907 0 6.16 0 2.86 0 .5 2.763.5 6.079c0 3.79 3.107 7.364 10.075 11.585a.82.82 0 0 0 .85 0C18.393 13.443 21.5 9.87 21.5 6.079 21.5 2.765 19.142 0 15.84 0Z" fill="#D0BC7A"/></svg></svg>